<?xml version="1.0" encoding="utf-8"?>
<!-- Generator: Adobe Illustrator 25.2.1, SVG Export Plug-In . SVG Version: 6.00 Build 0)  -->
<svg version="1.1" id="Capa_1" xmlns="http://www.w3.org/2000/svg" xmlns:xlink="http://www.w3.org/1999/xlink" x="0px" y="0px"
	 viewBox="0 0 129 28" style="enable-background:new 0 0 129 28;" xml:space="preserve">
<style type="text/css">
	.st0{fill:#F95C19;}
	.st1{fill-rule:evenodd;clip-rule:evenodd;fill:#F95C19;}
	.st2{opacity:0.428;fill-rule:evenodd;clip-rule:evenodd;fill:#FFFFFF;enable-background:new    ;}
	.st3{fill-rule:evenodd;clip-rule:evenodd;fill:#FFFFFF;}
</style>
<g>
	<path class="st0" d="M44.4,22.7c-4.4,0-7.1-3.1-7.1-8c0-5,2.7-8,7.1-8c3.5,0,6.3,2.3,6.6,5.4h-2.7c-0.4-1.8-1.9-3-3.8-3
		c-2.6,0-4.3,2.1-4.3,5.6c0,3.4,1.6,5.6,4.3,5.6c2,0,3.5-1.1,3.8-2.8H51C50.6,20.6,48,22.7,44.4,22.7z M58.7,12.6
		c-1.6,0-2.7,1.1-2.8,2.8h5.5C61.4,13.7,60.3,12.6,58.7,12.6L58.7,12.6z M61.4,19.2H64c-0.5,2.1-2.5,3.4-5.2,3.4
		c-3.5,0-5.6-2.2-5.6-6c0-3.7,2.1-6,5.5-6c3.4,0,5.4,2.2,5.4,5.8v0.8h-8.2v0.1c0.1,1.9,1.2,3.1,3,3.1C60.1,20.5,61.1,20,61.4,19.2z
		 M66.9,22.3v-16h2.7v16H66.9z M77.9,12.6c-1.6,0-2.7,1.1-2.8,2.8h5.5C80.5,13.7,79.5,12.6,77.9,12.6z M80.6,19.2h2.5
		c-0.5,2.1-2.5,3.4-5.2,3.4c-3.5,0-5.6-2.2-5.6-6c0-3.7,2.1-6,5.5-6c3.4,0,5.4,2.2,5.4,5.8v0.8H75v0.1c0.1,1.9,1.2,3.1,2.9,3.1
		C79.3,20.5,80.2,20,80.6,19.2z M85.7,14.1c0-2.1,1.9-3.5,4.7-3.5c2.8,0,4.6,1.2,4.7,3.3h-2.5c-0.2-0.8-1-1.3-2.2-1.3
		c-1.2,0-2.1,0.6-2.1,1.4c0,0.7,0.6,1.1,1.7,1.3l2.1,0.5c2.2,0.5,3.3,1.4,3.3,3.1c0,2.2-2.1,3.7-5,3.7c-2.9,0-4.8-1.2-5-3.3H88
		c0.3,0.9,1.1,1.4,2.4,1.4c1.3,0,2.3-0.6,2.3-1.4c0-0.7-0.5-1.1-1.6-1.3L89,17.4C86.7,16.9,85.7,15.8,85.7,14.1L85.7,14.1z
		 M99.3,7.9h2.7v2.9h2.5v2.1h-2.5v5.7c0,1.1,0.5,1.6,1.6,1.6c0.4,0,0.6,0,0.9-0.1v2c-0.5,0.1-0.9,0.1-1.4,0.1
		c-2.7,0-3.8-0.9-3.8-3.1v-6.3h-1.9v-2.1h1.9V7.9L99.3,7.9z M106.8,22.3V10.8h2.7v11.5H106.8z M108.1,8.9c-0.9,0-1.6-0.7-1.6-1.6
		c0-0.9,0.7-1.6,1.6-1.6c0.9,0,1.6,0.7,1.6,1.6C109.7,8.2,109,8.9,108.1,8.9z M116.8,20.5c1.6,0,2.8-1,2.8-2.4v-0.9l-2.7,0.2
		c-1.5,0.1-2.2,0.6-2.2,1.6C114.8,19.9,115.6,20.5,116.8,20.5z M116,22.5c-2.3,0-3.9-1.4-3.9-3.5c0-2.1,1.6-3.3,4.5-3.5l3-0.2v-1
		c0-1.1-0.8-1.8-2.2-1.8c-1.2,0-2.1,0.4-2.3,1.2h-2.5c0.2-2,2.2-3.3,5-3.3c3,0,4.7,1.4,4.7,3.9v7.9h-2.6v-1.6h-0.2
		C118.8,21.9,117.6,22.5,116,22.5z M125.6,22.3v-16h2.7v16L125.6,22.3L125.6,22.3z"/>
	<g>
		<circle class="st1" cx="17.4" cy="14" r="14"/>
		<g>
			<path class="st2" d="M9.5,18.9v-5.3c0-2.5,2-4.5,4.5-4.5c2.5,0,4.5,2,4.5,4.5c0,0,0,0,0,0v5.3H9.5L9.5,18.9z"/>
			<path class="st3" d="M24.3,9v9.8H9.4L24.3,9z"/>
		</g>
	</g>
</g>
</svg>
